<?xml version="1.0" standalone="no"?>
<!DOCTYPE svg PUBLIC "-//W3C//DTD SVG 20010904//EN"
 "http://www.w3.org/TR/2001/REC-SVG-20010904/DTD/svg10.dtd">
<svg version="1.0" xmlns="http://www.w3.org/2000/svg"
 width="300.000000pt" height="300.000000pt" viewBox="0 0 300.000000 300.000000"
 preserveAspectRatio="xMidYMid meet">

<g transform="translate(0.000000,300.000000) scale(0.100000,-0.100000)"
fill="#000000" stroke="none">
<path d="M2226 2445 c-9 -14 -21 -37 -26 -50 -8 -22 -13 -24 -29 -15 -89 47
-313 -82 -423 -243 -80 -118 -99 -211 -53 -265 32 -38 58 -48 190 -72 131 -23
159 -40 163 -98 4 -57 -27 -113 -107 -193 -66 -66 -158 -123 -189 -117 -25 5
19 42 84 70 59 25 68 38 29 38 -53 0 -165 -75 -165 -110 0 -81 150 -30 275 94
138 137 160 267 55 321 -17 9 -83 27 -147 40 -144 30 -163 41 -163 98 0 73 80
217 120 217 11 0 27 9 37 19 16 17 218 71 267 71 26 0 19 -22 -25 -86 -84
-119 -196 -228 -229 -222 -9 2 -19 -1 -21 -7 -2 -5 5 -11 16 -13 31 -4 106 51
190 140 68 72 75 77 75 53 0 -14 -5 -35 -11 -46 -6 -13 -7 -25 -1 -32 5 -7 10
-79 11 -162 5 -495 19 -743 43 -772 20 -25 31 -14 24 25 -22 133 -38 467 -33
707 4 250 5 263 32 345 15 47 28 86 29 87 8 9 344 34 399 30 51 -3 67 -1 67 9
0 7 -5 16 -11 20 -18 11 -213 5 -329 -10 -58 -7 -106 -12 -108 -11 -2 1 2 23
8 47 23 92 -5 152 -44 93z m-62 -117 c9 -12 12 -25 8 -29 -7 -7 -255 -69 -275
-69 -28 1 100 84 161 106 56 20 89 17 106 -8z"/>
<path d="M1153 2438 c-62 -68 -133 -312 -168 -581 l-15 -118 -111 -122 c-61
-67 -114 -123 -117 -125 -4 -1 -3 45 2 103 11 128 1 199 -29 202 -16 2 -37
-24 -100 -124 -44 -70 -86 -129 -94 -131 -36 -12 18 281 55 295 19 7 18 23 -2
23 -22 0 -60 -89 -79 -187 -19 -95 -17 -142 8 -157 31 -20 49 0 167 184 l42
65 -6 -157 c-3 -88 -10 -167 -16 -179 -7 -11 -40 -58 -74 -102 -239 -312 -360
-593 -286 -667 11 -11 25 -20 30 -20 30 0 81 33 119 76 108 123 181 313 230
605 11 61 25 118 33 127 21 25 188 214 207 234 15 16 16 6 18 -135 3 -207 31
-382 58 -355 3 2 -2 49 -10 104 -8 56 -15 168 -15 258 l0 159 39 71 c52 94
134 286 166 389 34 110 44 227 21 262 -20 31 -46 32 -73 3z m51 -24 c26 -68
-49 -338 -155 -559 l-39 -80 6 55 c3 30 19 120 35 200 54 272 127 453 153 384z
m-534 -1132 c-49 -288 -167 -552 -266 -600 -52 -24 -69 -9 -69 59 1 67 37 163
109 289 63 111 229 344 234 329 2 -5 -1 -40 -8 -77z"/>
<path d="M1396 2357 c-32 -54 -70 -195 -96 -361 -24 -145 -42 -195 -66 -176
-35 30 -102 -56 -141 -179 -30 -92 -29 -166 2 -166 16 0 36 32 95 147 l75 147
1 -262 c1 -258 7 -316 34 -325 9 -3 11 0 6 14 -20 49 -29 283 -18 461 l12 182
43 88 c135 270 179 473 102 473 -18 0 -31 -11 -49 -43z m64 -23 c0 -25 -12
-80 -26 -122 -25 -75 -108 -262 -117 -262 -9 0 29 195 55 285 41 140 88 193
88 99z m-230 -546 c1 -17 -113 -247 -122 -248 -10 0 20 117 43 169 29 66 78
115 79 79z"/>
<path d="M369 2371 c-166 -65 -359 -289 -359 -417 0 -93 40 -124 192 -150 164
-28 199 -55 184 -139 -9 -46 -87 -148 -155 -201 -56 -44 -136 -82 -148 -71
-11 12 17 34 82 63 63 29 81 52 34 46 -35 -5 -103 -39 -134 -68 -19 -17 -25
-32 -23 -52 3 -25 6 -27 49 -26 129 1 339 213 341 343 1 83 -50 118 -211 146
-158 27 -185 53 -157 148 44 151 234 330 375 353 51 8 71 -7 71 -53 0 -65 -83
-188 -201 -298 -51 -46 -66 -55 -86 -50 -18 4 -24 2 -21 -7 9 -28 46 -18 108
28 75 57 180 177 215 247 67 136 -10 215 -156 158z"/>
<path d="M2358 1873 c-79 -92 -93 -320 -21 -347 26 -10 65 23 96 84 48 94 31
186 -38 211 -40 15 -43 24 -15 39 11 6 18 15 15 21 -9 14 -20 11 -37 -8z m44
-100 c24 -21 24 -88 -1 -145 -22 -52 -47 -76 -63 -60 -16 16 -22 132 -9 180
13 47 39 56 73 25z"/>
<path d="M2525 1853 c-8 -22 -45 -352 -45 -410 0 -23 5 -45 10 -48 21 -13 40
17 40 63 0 26 9 64 20 88 23 46 194 218 229 229 14 4 21 13 19 23 -9 42 -95
-8 -210 -122 -41 -39 -58 -51 -58 -39 0 53 21 187 31 199 6 7 8 18 4 24 -10
16 -32 12 -40 -7z"/>
<path d="M2863 1772 c-54 -43 -80 -141 -52 -194 14 -27 73 -50 107 -42 48 12
82 34 82 53 0 18 -1 18 -37 0 -21 -10 -49 -19 -63 -19 -26 0 -70 25 -70 40 0
4 20 20 45 34 63 37 94 103 63 134 -17 17 -49 15 -75 -6z m52 -62 c-20 -39
-78 -77 -83 -55 -10 44 72 134 91 99 4 -8 1 -27 -8 -44z"/>
<path d="M1398 523 c7 -3 16 -2 19 1 4 3 -2 6 -13 5 -11 0 -14 -3 -6 -6z"/>
</g>
</svg>
