<?xml version="1.0" standalone="no"?>
<!DOCTYPE svg PUBLIC "-//W3C//DTD SVG 20010904//EN"
 "http://www.w3.org/TR/2001/REC-SVG-20010904/DTD/svg10.dtd">
<svg version="1.0" xmlns="http://www.w3.org/2000/svg"
 width="500.000000pt" height="500.000000pt" viewBox="0 0 500.000000 500.000000"
 preserveAspectRatio="xMidYMid meet">

<g transform="translate(0.000000,500.000000) scale(0.100000,-0.100000)"
fill="#000000" stroke="none">
<path d="M640 4050 c-227 -23 -400 -121 -473 -269 -28 -58 -32 -75 -32 -146 0
-67 5 -89 28 -136 47 -98 142 -167 297 -218 36 -11 153 -41 260 -66 107 -25
227 -55 265 -66 142 -43 246 -113 287 -193 29 -57 36 -163 14 -220 -19 -50
-101 -133 -162 -164 -188 -95 -482 -94 -680 4 -87 43 -214 156 -266 236 l-33
50 -42 -48 c-48 -54 -48 -54 22 -125 131 -133 310 -195 600 -206 197 -7 290 8
412 68 177 86 258 219 232 379 -25 154 -126 252 -329 318 -36 12 -157 44 -270
71 -313 76 -392 107 -474 187 -56 54 -80 114 -81 199 0 50 6 81 20 110 67 135
251 213 480 202 176 -9 312 -56 454 -158 46 -33 84 -59 85 -57 2 2 17 26 34
55 l31 52 -32 19 c-51 31 -158 70 -249 92 -67 16 -298 44 -318 39 -3 -1 -39
-5 -80 -9z"/>
<path d="M2953 4050 c-104 -24 -173 -147 -205 -366 -20 -140 -18 -777 4 -869
38 -164 94 -252 192 -302 39 -20 70 -27 131 -31 97 -5 155 9 198 48 40 37 24
38 -37 4 -56 -31 -146 -42 -202 -24 -93 30 -144 103 -171 242 -8 44 -13 81
-11 82 2 1 27 17 56 35 189 119 330 412 332 687 1 304 -131 530 -287 494z m93
-39 c60 -36 117 -136 148 -255 69 -263 -23 -604 -211 -790 -41 -41 -108 -86
-128 -86 -4 0 -5 219 -3 488 4 440 6 493 23 545 34 108 97 143 171 98z"/>
<path d="M4482 3980 c-49 -54 -146 -107 -216 -116 -68 -10 -56 -24 19 -24 113
0 135 -42 135 -259 0 -123 -1 -133 -17 -126 -167 68 -338 81 -498 40 -212 -55
-359 -209 -388 -408 -13 -90 6 -196 50 -287 40 -82 144 -182 234 -225 134 -63
166 -68 467 -72 l272 -5 0 766 c0 421 -3 766 -7 765 -5 -1 -27 -23 -51 -49z
m-182 -518 c36 -11 77 -25 93 -32 l27 -13 0 -351 c0 -349 0 -351 -24 -402 -38
-82 -109 -125 -231 -138 -218 -25 -461 153 -520 379 -81 314 166 599 505 581
47 -3 114 -14 150 -24z"/>
<path d="M2162 3499 c-73 -37 -113 -105 -132 -224 -14 -88 -1 -178 50 -357 61
-212 66 -327 15 -350 -31 -14 -65 7 -101 62 -14 21 -101 225 -194 452 l-168
413 -61 3 c-33 2 -61 1 -61 -1 0 -2 79 -199 176 -438 175 -434 210 -507 266
-554 58 -49 142 -25 180 53 31 65 21 195 -27 362 -64 220 -58 377 17 464 37
42 82 57 137 45 153 -34 197 -366 90 -699 -28 -89 -108 -255 -157 -328 -98
-144 -217 -253 -339 -314 -64 -31 -73 -33 -178 -33 -60 0 -125 3 -142 7 l-33
8 0 -59 0 -59 63 -7 c121 -13 239 30 368 133 220 174 428 534 505 872 48 211
41 360 -22 467 -53 91 -164 127 -252 82z"/>
<path d="M1697 1813 c-11 -10 -8 -133 3 -133 6 0 10 14 10 30 0 27 3 30 30 30
17 0 30 5 30 10 0 6 -13 10 -30 10 -23 0 -30 4 -30 20 0 15 7 20 29 20 17 0
33 5 36 10 7 11 -67 14 -78 3z"/>
<path d="M1858 1750 c-14 -38 -21 -70 -16 -70 6 0 12 9 15 20 4 14 14 20 35
20 21 0 31 -6 35 -20 3 -11 10 -20 15 -20 10 0 8 9 -21 85 -10 27 -23 51 -28
52 -6 2 -21 -28 -35 -67z m51 -7 c1 -7 -8 -13 -19 -13 -23 0 -23 0 -9 37 10
26 12 27 19 8 5 -11 9 -26 9 -32z"/>
<path d="M2020 1805 c-18 -22 -5 -44 36 -61 36 -15 40 -30 11 -48 -12 -8 -21
-5 -36 8 -18 16 -21 17 -21 4 0 -32 73 -39 89 -9 13 23 -3 46 -41 60 -30 11
-37 35 -14 44 7 3 23 -1 35 -9 18 -13 21 -13 21 -1 0 28 -59 37 -80 12z"/>
<path d="M2170 1750 c0 -40 4 -70 10 -70 6 0 10 14 10 30 0 28 3 30 35 30 32
0 35 -2 35 -30 0 -16 5 -30 10 -30 6 0 10 30 10 70 0 40 -4 70 -10 70 -5 0
-10 -13 -10 -30 0 -28 -3 -30 -35 -30 -32 0 -35 2 -35 30 0 17 -4 30 -10 30
-6 0 -10 -30 -10 -70z"/>
<path d="M2350 1750 c0 -40 4 -70 10 -70 6 0 10 30 10 70 0 40 -4 70 -10 70
-6 0 -10 -30 -10 -70z"/>
<path d="M2458 1803 c-24 -28 -28 -50 -17 -83 19 -53 89 -53 108 1 16 47 -12
99 -54 99 -12 0 -29 -8 -37 -17z m71 -17 c18 -21 9 -66 -14 -82 -18 -12 -24
-11 -43 2 -24 17 -30 62 -10 82 16 16 53 15 67 -2z"/>
<path d="M2620 1750 c0 -81 17 -95 22 -18 l3 51 35 -51 c19 -29 38 -52 43 -52
4 0 6 33 5 73 -1 62 -2 65 -5 20 -2 -29 -7 -53 -11 -53 -4 0 -22 23 -41 50
-18 28 -37 50 -42 50 -5 0 -9 -31 -9 -70z"/>
<path d="M2913 1813 c-7 -2 -13 -16 -13 -29 0 -19 8 -29 35 -40 36 -15 46 -38
20 -48 -18 -7 -45 3 -45 16 0 5 -5 6 -10 3 -18 -11 10 -35 40 -35 59 0 67 56
11 75 -40 13 -48 27 -27 44 11 9 20 10 35 2 28 -15 36 -14 21 4 -12 15 -43 18
-67 8z"/>
<path d="M3050 1810 c0 -5 9 -10 20 -10 18 0 20 -7 20 -60 0 -33 4 -60 10 -60
6 0 10 27 10 60 0 53 2 60 20 60 11 0 20 5 20 10 0 6 -22 10 -50 10 -27 0 -50
-4 -50 -10z"/>
<path d="M3237 1807 c-10 -6 -20 -28 -23 -48 -5 -29 -2 -41 15 -58 43 -43 101
-15 101 51 0 56 -51 87 -93 55z m73 -26 c15 -29 12 -49 -10 -71 -24 -24 -34
-25 -54 -4 -19 18 -21 65 -4 82 18 18 56 14 68 -7z"/>
<path d="M3400 1750 c0 -40 4 -70 10 -70 6 0 10 11 10 25 0 18 5 25 18 25 11
0 24 -11 30 -25 6 -14 17 -25 23 -25 7 0 5 10 -6 26 -12 19 -14 29 -6 37 15
15 14 50 -1 65 -7 7 -27 12 -45 12 l-33 0 0 -70z m74 41 c11 -18 -6 -41 -30
-41 -19 0 -24 5 -24 25 0 20 5 25 24 25 14 0 27 -4 30 -9z"/>
<path d="M3560 1750 l0 -70 48 2 c43 1 44 2 10 5 -33 4 -38 8 -38 29 0 20 5
24 30 24 17 0 30 5 30 10 0 6 -13 10 -30 10 -23 0 -30 4 -30 20 0 16 7 20 30
20 17 0 30 5 30 10 0 6 -18 10 -40 10 l-40 0 0 -70z"/>
</g>
</svg>
